<svg xmlns="http://www.w3.org/2000/svg" width="69" height="69" viewBox="0 0 69 69">
  <g id="history" transform="translate(-93 -570)">
    <g id="Rectangle_448" data-name="Rectangle 448" transform="translate(93 570)" fill="#377d94" stroke="#707070" stroke-width="1" opacity="0">
      <rect width="69" height="69" stroke="none"/>
      <rect x="0.5" y="0.5" width="68" height="68" fill="none"/>
    </g>
    <g id="Group_909" data-name="Group 909" transform="translate(-1.224 504.093)">
      <path id="Path_919" data-name="Path 919" d="M161.923,101.65a16.556,16.556,0,0,0-3.682-10.416V78.477a1.043,1.043,0,0,0-.269-.7l-9.2-10.231c-.006-.008-.015-.009-.021-.017a1.051,1.051,0,0,0-.292-.212c-.035-.017-.068-.029-.1-.042a1.044,1.044,0,0,0-.3-.065c-.021,0-.041-.014-.062-.014H103.076a7.56,7.56,0,0,0-7.551,7.553v44.358a7.559,7.559,0,0,0,5.715,7.317,7.556,7.556,0,0,0,7.468,6.492h35.7a7.556,7.556,0,0,0,7.447-6.356,7.558,7.558,0,0,0,6.389-7.453v-7.038A16.56,16.56,0,0,0,161.923,101.65ZM150.69,124.556h-35.7a5.457,5.457,0,0,1-5.452-5.45V74.748a5.457,5.457,0,0,1,5.452-5.452h31.949v5.916a4.544,4.544,0,0,0,4.539,4.539h4.662v9.314a16.608,16.608,0,0,0-27.46,11.515l-1.937-4.074a1.051,1.051,0,0,0-1.9.9l3.245,6.822a1.053,1.053,0,0,0,.752.581,1.075,1.075,0,0,0,.2.018,1.055,1.055,0,0,0,.716-.281l5.238-4.868a1.05,1.05,0,0,0-1.43-1.538l-2.79,2.593a14.521,14.521,0,1,1,4.988,11.923,1.05,1.05,0,1,0-1.373,1.588,16.6,16.6,0,0,0,21.753-.011v4.871A5.457,5.457,0,0,1,150.69,124.556Zm-41.982,6.258a5.458,5.458,0,0,1-5.452-5.452V81a5.449,5.449,0,0,1,4.184-5.286v43.388a7.559,7.559,0,0,0,7.551,7.551h34.694a5.449,5.449,0,0,1-5.28,4.157ZM97.624,74.748a5.458,5.458,0,0,1,5.452-5.452h6.7a7.536,7.536,0,0,0-2.235,4.256A7.555,7.555,0,0,0,101.157,81v43.185a5.443,5.443,0,0,1-3.533-5.083Zm57.245,2.9h-3.39a2.443,2.443,0,0,1-2.439-2.439V71.03Z" transform="translate(0 0)" fill="#377d94"/>
      <path id="Path_920" data-name="Path 920" d="M135.372,101.288a1.05,1.05,0,0,0,1.484-1.486l-6.536-6.536V84.647a1.05,1.05,0,1,0-2.1,0V93.7a1.046,1.046,0,0,0,.308.743Z" transform="translate(16.476 8.265)" fill="#377d94"/>
      <path id="Path_921" data-name="Path 921" d="M109.982,74.148a1.05,1.05,0,1,0,0,2.1H119.8a1.05,1.05,0,1,0,0-2.1Z" transform="translate(6.756 3.504)" fill="#377d94"/>
      <path id="Path_922" data-name="Path 922" d="M120.85,78.779a1.05,1.05,0,0,0-1.05-1.05h-9.819a1.05,1.05,0,0,0,0,2.1H119.8A1.05,1.05,0,0,0,120.85,78.779Z" transform="translate(6.756 5.308)" fill="#377d94"/>
    </g>
  </g>
</svg>
