<svg xmlns="http://www.w3.org/2000/svg" width="80" height="80" viewBox="0 0 80 80">
  <g id="icon_faq" transform="translate(-599.042 -309.683)">
    <rect id="Rectangle_690" data-name="Rectangle 690" width="80" height="80" transform="translate(599.042 309.683)" fill="none"/>
    <g id="Group_614" data-name="Group 614" transform="translate(-0.7 0.333)">
      <circle id="Ellipse_9" data-name="Ellipse 9" cx="4.862" cy="4.862" r="4.862" transform="translate(644.817 321.667)" fill="none" stroke="#fff" stroke-miterlimit="10" stroke-width="3.5"/>
      <g id="Group_613" data-name="Group 613" transform="translate(600.441 314.082)">
        <path id="Path_2081" data-name="Path 2081" d="M648.015,321.882a28.848,28.848,0,0,0-20.043-7.8c-15.182,0-27.53,10.944-27.53,24.4a22.2,22.2,0,0,0,5.179,14.159.4.4,0,0,1,.047.441,8.041,8.041,0,0,1-2.686,2.948,2.715,2.715,0,0,0,1.15,4.956,14.969,14.969,0,0,0,2.657.162,17.857,17.857,0,0,0,7.178-1.528.413.413,0,0,1,.164-.036.391.391,0,0,1,.183.045,26.079,26.079,0,0,0,3.869,1.626v-.45a22.06,22.06,0,0,1,.282-3.782,28.164,28.164,0,0,1-3.288-1.553l-1.124-.629-1.038.622a11.946,11.946,0,0,1-4.346,1.533.4.4,0,0,1-.375-.63,11.733,11.733,0,0,0,1.673-3.106l.416-1.173-.83-.9a18.265,18.265,0,0,1-5.129-12.621c0-11.213,10.523-20.333,23.457-20.333a24.841,24.841,0,0,1,17.184,6.508A6.639,6.639,0,0,1,648.015,321.882Z" transform="translate(-600.441 -314.082)" fill="#fff"/>
        <path id="Path_61" data-name="Path 61" d="M652.292,367.545h-2.935a1.125,1.125,0,0,0-1.092,1.154v1.893a.515.515,0,0,0,0,.057,1.125,1.125,0,0,0,1.153,1.1h2.935a1.126,1.126,0,0,0,1.1-1.154V368.7A1.239,1.239,0,0,0,652.292,367.545Z" transform="translate(-600.801 -314.484)" fill="#fff"/>
        <path id="Path_2082" data-name="Path 2082" d="M679.214,360.219c0-13.584-12.5-24.638-27.854-24.638-15.4,0-27.935,11.017-27.935,24.557,0,13.589,12.5,24.642,27.854,24.642h.025a31.046,31.046,0,0,0,13.8-3.252.394.394,0,0,1,.345,0,17.24,17.24,0,0,0,7.256,1.612h.069a14.648,14.648,0,0,0,2.662-.16,2.6,2.6,0,0,0,2.306-2.073,2.729,2.729,0,0,0-1.148-2.885,8.042,8.042,0,0,1-2.686-2.945.4.4,0,0,1,.046-.439A22.974,22.974,0,0,0,679.214,360.219Zm-9.2,12.878-.828.893.416,1.173v0a12.211,12.211,0,0,0,1.675,3.191.4.4,0,0,1-.38.627,12.925,12.925,0,0,1-4.417-1.53l-1.04-.623-1.031.618a26.875,26.875,0,0,1-12.976,3.352h-.079c-13.116,0-23.787-9.231-23.787-20.578s10.671-20.574,23.788-20.574,23.789,9.229,23.79,20.573A18.889,18.889,0,0,1,670.015,373.1Z" transform="translate(-600.614 -314.244)" fill="#fff"/>
        <path id="Path_63" data-name="Path 63" d="M657.036,350.934a8.263,8.263,0,0,0-5.683-1.812,8.685,8.685,0,0,0-5.436,1.564,5.07,5.07,0,0,0-1.977,4.036.736.736,0,0,0,.734.74h.007l3.294.082a1.236,1.236,0,0,0,1.153-.824,1.972,1.972,0,0,1,.577-.992,2.508,2.508,0,0,1,1.73-.659,2.681,2.681,0,0,1,1.977.741,2.715,2.715,0,0,1,.659,2.059,3.627,3.627,0,0,1-.577,2.141,5.669,5.669,0,0,1-1.564,1.564,10.284,10.284,0,0,0-2.718,2.472,4.488,4.488,0,0,0-.741,2.306c-.082.5.329.825.824.825h3.541a.874.874,0,0,0,.823-.742,6.135,6.135,0,0,1,.329-1.313,3.51,3.51,0,0,1,1.318-1.4,8.391,8.391,0,0,0,2.878-2.471,6.008,6.008,0,0,0,1.153-3.46,7.333,7.333,0,0,0-2.306-4.863Z" transform="translate(-600.768 -314.346)" fill="#fff"/>
      </g>
    </g>
  </g>
</svg>
