<svg xmlns="http://www.w3.org/2000/svg" width="80" height="80" viewBox="0 0 80 80">
  <g id="icon_data" transform="translate(-93 -570)">
    <g id="Rectangle_448" data-name="Rectangle 448" transform="translate(93 570)" fill="#377d94" stroke="#377d94" stroke-width="1.5" opacity="0">
      <rect width="80" height="80" stroke="none"/>
      <rect x="0.75" y="0.75" width="78.5" height="78.5" fill="none"/>
    </g>
    <g id="Group_918" data-name="Group 918" transform="translate(95.601 571.542)">
      <path id="Path_933" data-name="Path 933" d="M119.608,339.277H108.061a1.235,1.235,0,1,0,0,2.471h11.547a1.235,1.235,0,0,0,0-2.471Z" transform="translate(-88.483 -286.605)" fill="#377d94" stroke="#377d94" stroke-width="1.5"/>
      <path id="Path_934" data-name="Path 934" d="M119.608,342.858H108.061a1.235,1.235,0,1,0,0,2.471h11.547a1.235,1.235,0,0,0,0-2.471Z" transform="translate(-88.483 -283.853)" fill="#377d94" stroke="#377d94" stroke-width="1.5"/>
      <path id="Path_935" data-name="Path 935" d="M119.3,319.886h11.547a1.235,1.235,0,0,0,0-2.471H119.3a1.235,1.235,0,0,0,0,2.471Z" transform="translate(-79.843 -303.408)" fill="#377d94" stroke="#377d94" stroke-width="1.5"/>
      <path id="Path_936" data-name="Path 936" d="M132.083,322.232A1.235,1.235,0,0,0,130.848,321H119.3a1.235,1.235,0,0,0,0,2.471h11.547A1.234,1.234,0,0,0,132.083,322.232Z" transform="translate(-79.843 -300.656)" fill="#377d94" stroke="#377d94" stroke-width="1.5"/>
      <path id="Path_937" data-name="Path 937" d="M171.252,368.309a16.731,16.731,0,0,0-5.47-12.362V326.139a1.226,1.226,0,0,0-.317-.826l-10.82-12.032c-.007-.009-.018-.011-.027-.019a1.2,1.2,0,0,0-.341-.249c-.041-.019-.08-.034-.12-.05a1.2,1.2,0,0,0-.357-.076c-.025,0-.048-.016-.073-.016H123.3a16.769,16.769,0,1,0-17.256,28.559v32.487a8.889,8.889,0,0,0,8.88,8.88h31.093a16.661,16.661,0,0,0,8.445,2.3,16.891,16.891,0,0,0,2.674-.233,2.732,2.732,0,0,0,2.462,1.544,2.775,2.775,0,0,0,1.017-.195l2.059-.813a2.749,2.749,0,0,0,1.583-3.484A16.763,16.763,0,0,0,171.252,368.309Zm-16.29-50.93,6.853,7.787h-3.985a2.871,2.871,0,0,1-2.869-2.867Zm-53.006,17.687a14.319,14.319,0,1,1,22.576,0,8.581,8.581,0,0,0-8.288-6.418h-6A8.58,8.58,0,0,0,101.956,335.067Zm2.165,2.248c0-.032.019-.06.019-.092a6.11,6.11,0,0,1,6.1-6.1h6a6.111,6.111,0,0,1,6.1,6.1.846.846,0,0,0,.019.092,14.29,14.29,0,0,1-18.246,0Zm10.8,43.012a6.418,6.418,0,0,1-6.411-6.409V342.385a16.766,16.766,0,0,0,17.438-27.043h26.543V322.3a5.343,5.343,0,0,0,5.338,5.338h5.483V354.07a16.767,16.767,0,0,0-20.553,26.256Zm47,2.623a.278.278,0,0,1-.159.156l-2.06.814a.329.329,0,0,1-.379-.164l-4.006-10.141a2.027,2.027,0,0,0-1.289-1.2,2.091,2.091,0,0,0-.6-.092,2.037,2.037,0,0,0-1.137.35l-2.416,1.636,2.018-13.186,10.486,8.247-2.881.458a2.034,2.034,0,0,0-1.574,2.755l4.006,10.143,0,0A.274.274,0,0,1,161.925,382.949Zm1.4-3.413-2.9-7.354,3.412-.541a2,2,0,0,0,.921-3.544l-11.717-9.216a2.189,2.189,0,0,0-3.514,1.39L147.269,375a2,2,0,0,0,3.093,1.958l2.862-1.937,2.959,7.49a14.531,14.531,0,0,1-1.721.113,14.359,14.359,0,1,1,8.864-3.093Z" transform="translate(-96.454 -309.495)" fill="#377d94" stroke="#377d94" stroke-width="1.5"/>
      <path id="Path_938" data-name="Path 938" d="M113.253,319.1a5.093,5.093,0,1,0-5.092,5.093A5.1,5.1,0,0,0,113.253,319.1Zm-7.716,0a2.624,2.624,0,1,1,2.625,2.623A2.627,2.627,0,0,1,105.537,319.1Z" transform="translate(-91.371 -306.025)" fill="#377d94" stroke="#377d94" stroke-width="1.5"/>
    </g>
  </g>
</svg>
