<svg xmlns="http://www.w3.org/2000/svg" width="80" height="80" viewBox="0 0 80 80">
  <g id="Group_927" data-name="Group 927" transform="translate(-145 -1975)">
    <g id="Rectangle_449" data-name="Rectangle 449" transform="translate(145 1975)" fill="#fff" stroke="#fff" stroke-width="1" opacity="0">
      <rect width="80" height="80" stroke="none"/>
      <rect x="0.5" y="0.5" width="79" height="79" fill="none"/>
    </g>
    <g id="Group_926" data-name="Group 926" transform="translate(146.537 1976.519)">
      <path id="Path_944" data-name="Path 944" d="M108.795,263.541a7.119,7.119,0,1,0-7.118-7.12A7.126,7.126,0,0,0,108.795,263.541Zm0-11.79a4.671,4.671,0,1,1-4.672,4.67A4.677,4.677,0,0,1,108.795,251.751Z" transform="translate(-91.776 -213.103)" fill="#fff" stroke="#fff" stroke-width="1.8"/>
      <path id="Path_945" data-name="Path 945" d="M125.4,256.421a7.118,7.118,0,1,0,7.118-7.118A7.126,7.126,0,0,0,125.4,256.421Zm11.789,0a4.672,4.672,0,1,1-4.672-4.67A4.677,4.677,0,0,1,137.189,256.421Z" transform="translate(-73.93 -213.103)" fill="#fff" stroke="#fff" stroke-width="1.8"/>
      <path id="Path_946" data-name="Path 946" d="M159.2,259.04H150.03a12.44,12.44,0,0,0-10.843,6.366c-.317-.025-.634-.049-.958-.049h-9.166c-.2,0-.4.021-.6.032a12.441,12.441,0,0,0-10.833-6.349h-9.165a12.452,12.452,0,0,0-12.438,12.438,4.614,4.614,0,0,0,4.609,4.609h16.121a12.458,12.458,0,0,0-.131,1.708,4.614,4.614,0,0,0,4.609,4.609h24.823a4.613,4.613,0,0,0,4.607-4.609,12.465,12.465,0,0,0-.131-1.708h16.493a4.614,4.614,0,0,0,4.607-4.609A12.451,12.451,0,0,0,159.2,259.04Zm7.829,14.6h-17.09a12.479,12.479,0,0,0-8.171-7.761,9.989,9.989,0,0,1,8.266-4.389H159.2a10,10,0,0,1,9.99,9.99A2.164,2.164,0,0,1,167.025,273.639Zm-18.808,4.156a2.164,2.164,0,0,1-2.161,2.161H121.234a2.164,2.164,0,0,1-2.162-2.161,10,10,0,0,1,9.99-9.99h9.166A10,10,0,0,1,148.218,277.795Zm-49.743-6.317a10,10,0,0,1,9.99-9.99h9.165a9.979,9.979,0,0,1,8.206,4.309,12.465,12.465,0,0,0-8.479,7.842H100.636A2.163,2.163,0,0,1,98.475,271.478Z" transform="translate(-96.027 -205.777)" fill="#fff" stroke="#fff" stroke-width="1.8"/>
      <path id="Path_947" data-name="Path 947" d="M113.433,260.026a7.118,7.118,0,1,0,7.116-7.118A7.127,7.127,0,0,0,113.433,260.026Zm11.79,0a4.672,4.672,0,1,1-4.673-4.672A4.679,4.679,0,0,1,125.223,260.026Z" transform="translate(-82.932 -210.391)" fill="#fff" stroke="#fff" stroke-width="1.8"/>
      <path id="Path_948" data-name="Path 948" d="M107.356,236.529h7.917a8.981,8.981,0,0,1,0,17.963h-7.8a1.223,1.223,0,0,0,.009,2.446h7.794a11.44,11.44,0,0,0,10.575-7.113,11.442,11.442,0,0,0,10.577,7.113h7.521l-3.375,3.377a1.223,1.223,0,1,0,1.729,1.73l5.574-5.574a1.221,1.221,0,0,0,0-1.73l-3.559-3.561-1.794-1.794a1.224,1.224,0,0,0-1.73,1.731l3.373,3.375h-7.74a8.981,8.981,0,1,1,0-17.963h7.547l-3.4,3.4a1.224,1.224,0,1,0,1.729,1.731l1.947-1.945,3.627-3.629a1.225,1.225,0,0,0,0-1.731L142.523,229a1.224,1.224,0,0,0-1.733,1.73l3.349,3.349h-7.714a11.441,11.441,0,0,0-10.577,7.114,11.439,11.439,0,0,0-10.575-7.114h-7.917a1.224,1.224,0,0,0,0,2.448Z" transform="translate(-88.424 -228.644)" fill="#fff" stroke="#fff" stroke-width="1.8"/>
    </g>
  </g>
</svg>
