<svg xmlns="http://www.w3.org/2000/svg" width="80" height="80" viewBox="0 0 80 80">
  <g id="icon_newsMedia" transform="translate(-187 -2006)">
    <g id="Rectangle_451" data-name="Rectangle 451" transform="translate(187 2006)" fill="#377d94" stroke="#377d94" stroke-width="1" opacity="0">
      <rect width="80" height="80" stroke="none"/>
      <rect x="0.5" y="0.5" width="79" height="79" fill="none"/>
    </g>
    <g id="Group_934" data-name="Group 934" transform="translate(-22.338 1795.934)">
      <g id="Group_611" data-name="Group 611" transform="translate(209.922 221.265)">
        <path id="Path_56" data-name="Path 56" d="M238.607,255.667a138.107,138.107,0,0,0-15.8-4.293V239.746a103.4,103.4,0,0,0,13.58-3.426,117.541,117.541,0,0,0,20.527-8.862l0,36.181q-.7-.384-1.411-.759a2.275,2.275,0,0,0-3.338,2.009h0a2.267,2.267,0,0,0,1.222,2.007q2.362,1.24,4.673,2.581a2.274,2.274,0,0,0,3.4-1.971V223.544l0,0a2.275,2.275,0,0,0-3.432-1.957A113.516,113.516,0,0,1,235,231.995a90.326,90.326,0,0,1-22.922,4.442,2.275,2.275,0,0,0-2.153,2.266v13.645a2.275,2.275,0,0,0,2.1,2.266q3.646.271,7.193.788a2.275,2.275,0,0,0,0,.731c.275,1.663.7,3.3.876,4.983a53.508,53.508,0,0,1,.425,7.131c-.023.911-.065,1.607-.212,3.677a5.854,5.854,0,0,0,0,.832c.262,3.751,3.893,6.372,7.942,6.088a8.114,8.114,0,0,0,.832-.1c4.03-.683,6.867-4.134,6.07-7.859-.433-2.024-.572-2.713-.721-3.611-.176-1.082-.3-2.138-.394-3.524q-.176-2.511-.145-5.037l3.7,1.274m-23.127-9.732V240.83q1.883-.154,3.791-.394v10.246Q216.376,250.438,214.469,250.257Zm9.4,5.944q2.78.542,5.5,1.24a65.9,65.9,0,0,0,.13,6.633c.106,1.523.243,2.721.447,3.95.169,1,.312,1.723.761,3.82.213.99-.736,2.145-2.383,2.423a3.661,3.661,0,0,1-.388.046c-1.709.117-3.015-.827-3.088-1.871a1.263,1.263,0,0,1,0-.193c.152-2.138.2-2.879.222-3.887.031-1.246,0-2.452-.107-3.975a66.47,66.47,0,0,0-1.012-7.791l-.086-.424Z" transform="translate(-209.922 -221.266)" fill="#377d94"/>
        <path id="Path_57" data-name="Path 57" d="M272.3,233.854l8.406-8.743h0a2.273,2.273,0,0,0-.064-3.214v.009h0a2.273,2.273,0,0,0-3.214.054l-8.406,8.742a2.274,2.274,0,1,0,3.278,3.153Z" transform="translate(-210.776 -221.265)" fill="#377d94"/>
        <path id="Path_58" data-name="Path 58" d="M272.3,257.353l-.169-.16a2.274,2.274,0,0,0-3.108,3.312l8.406,8.743.169.159A2.274,2.274,0,0,0,280.7,266.1Z" transform="translate(-210.777 -221.783)" fill="#377d94"/>
        <path id="Path_59" data-name="Path 59" d="M287.4,242.8H275.263a2.274,2.274,0,1,0,0,4.549h12.137a2.274,2.274,0,0,0,0-4.549Z" transform="translate(-210.844 -221.58)" fill="#377d94"/>
      </g>
      <circle id="Ellipse_8" data-name="Ellipse 8" cx="4.266" cy="4.266" r="4.266" transform="translate(238.12 255.405)" fill="none" stroke="#377d94" stroke-miterlimit="10" stroke-width="3.5"/>
    </g>
  </g>
</svg>
