<svg xmlns="http://www.w3.org/2000/svg" width="69" height="69" viewBox="0 0 69 69">
  <g id="surveyMethod" transform="translate(-93 -570)">
    <g id="Rectangle_448" data-name="Rectangle 448" transform="translate(93 570)" fill="#377d94" stroke="#707070" stroke-width="1" opacity="0">
      <rect width="69" height="69" stroke="none"/>
      <rect x="0.5" y="0.5" width="68" height="68" fill="none"/>
    </g>
    <g id="Group_917" data-name="Group 917" transform="translate(-0.727 343.221)">
      <path id="Path_928" data-name="Path 928" d="M107.74,261.43a6.064,6.064,0,1,0-6.063-6.064A6.07,6.07,0,0,0,107.74,261.43Zm0-10.042a3.979,3.979,0,1,1-3.979,3.978A3.984,3.984,0,0,1,107.74,251.388Z" transform="translate(2.783 10.176)" fill="#377d94"/>
      <path id="Path_929" data-name="Path 929" d="M125.4,255.366a6.063,6.063,0,1,0,6.063-6.063A6.07,6.07,0,0,0,125.4,255.366Zm10.042,0a3.979,3.979,0,1,1-3.979-3.978A3.984,3.984,0,0,1,135.441,255.366Z" transform="translate(14.468 10.176)" fill="#377d94"/>
      <path id="Path_930" data-name="Path 930" d="M149.833,259.04h-7.808a10.6,10.6,0,0,0-9.236,5.423c-.27-.021-.54-.042-.816-.042h-7.808c-.172,0-.34.018-.51.027a10.6,10.6,0,0,0-9.227-5.408h-7.806a10.606,10.606,0,0,0-10.594,10.594,3.93,3.93,0,0,0,3.926,3.926h13.732a10.616,10.616,0,0,0-.112,1.455,3.93,3.93,0,0,0,3.926,3.925h21.144a3.929,3.929,0,0,0,3.924-3.925,10.616,10.616,0,0,0-.112-1.455H156.5a3.93,3.93,0,0,0,3.924-3.926A10.606,10.606,0,0,0,149.833,259.04Zm6.669,12.435H141.945a10.63,10.63,0,0,0-6.96-6.611,8.509,8.509,0,0,1,7.041-3.739h7.808a8.52,8.52,0,0,1,8.509,8.509A1.843,1.843,0,0,1,156.5,271.475Zm-16.02,3.54a1.843,1.843,0,0,1-1.84,1.84H117.5a1.843,1.843,0,0,1-1.842-1.84,8.519,8.519,0,0,1,8.509-8.509h7.808A8.519,8.519,0,0,1,140.482,275.015Zm-42.37-5.381a8.52,8.52,0,0,1,8.509-8.509h7.806a8.5,8.5,0,0,1,6.99,3.67,10.618,10.618,0,0,0-7.223,6.679H99.953A1.842,1.842,0,0,1,98.112,269.634Z" transform="translate(0 14.973)" fill="#377d94"/>
      <path id="Path_931" data-name="Path 931" d="M113.433,258.971a6.063,6.063,0,1,0,6.061-6.063A6.07,6.07,0,0,0,113.433,258.971Zm10.042,0a3.979,3.979,0,1,1-3.981-3.979A3.985,3.985,0,0,1,123.475,258.971Z" transform="translate(8.574 11.952)" fill="#377d94"/>
      <path id="Path_932" data-name="Path 932" d="M107.175,235.361h6.744a7.65,7.65,0,0,1,0,15.3h-6.647a1.042,1.042,0,0,0,.007,2.084h6.639a9.744,9.744,0,0,0,9.008-6.058,9.746,9.746,0,0,0,9.009,6.058h6.406l-2.875,2.876a1.042,1.042,0,1,0,1.473,1.473l4.748-4.748a1.04,1.04,0,0,0,0-1.473l-3.031-3.033-1.528-1.528a1.042,1.042,0,0,0-1.473,1.475l2.873,2.875h-6.593a7.65,7.65,0,1,1,0-15.3h6.429l-2.9,2.9a1.042,1.042,0,1,0,1.473,1.475l1.658-1.657,3.09-3.091a1.044,1.044,0,0,0,0-1.475l-4.56-4.56a1.043,1.043,0,0,0-1.476,1.473l2.852,2.852h-6.57a9.746,9.746,0,0,0-9.009,6.06,9.743,9.743,0,0,0-9.008-6.06h-6.744a1.043,1.043,0,0,0,0,2.085Z" transform="translate(4.978)" fill="#377d94"/>
    </g>
  </g>
</svg>
